<svg xmlns="http://www.w3.org/2000/svg" width="500" height="500" viewBox="0 0 500 500">
<g>
<path d="M 205.00 440.45 C168.21,435.37 137.79,421.47 116.22,399.88 C108.44,392.10 97.36,376.87 93.75,369.00 C89.38,359.48 87.64,354.69 85.21,345.50 C82.83,336.50 82.57,333.80 82.62,318.50 C82.67,303.44 82.98,300.38 85.30,291.69 C91.90,266.96 104.51,247.82 123.78,233.32 C127.94,230.19 137.68,224.43 145.42,220.53 C154.67,215.86 159.60,212.81 159.83,211.62 C160.10,210.22 159.74,209.95 158.24,210.42 C153.44,211.95 138.64,214.12 129.50,214.64 C115.74,215.43 111.86,213.70 113.42,207.47 C114.24,204.18 126.33,191.51 133.89,185.99 L 139.85 181.66 L 140.67 173.08 C141.55,163.95 141.50,123.17 140.61,122.28 C140.32,121.99 137.09,122.95 133.42,124.42 C124.76,127.89 111.74,130.98 105.79,130.99 C96.92,131.01 97.76,127.30 110.72,109.15 C115.82,101.99 130.09,87.13 136.50,82.28 C141.59,78.43 149.55,74.47 153.82,73.66 C158.84,72.70 165.40,74.54 176.97,80.17 C197.23,90.01 221.83,107.91 241.58,127.19 C252.63,137.96 252.69,138.00 257.58,138.01 C262.07,138.02 275.33,139.28 284.00,140.52 C295.75,142.20 302.76,146.79 301.49,151.96 C300.72,155.10 294.94,161.18 290.40,163.63 C288.53,164.63 287.00,165.72 287.00,166.04 C287.00,166.37 288.91,167.68 291.25,168.97 C314.50,181.75 335.00,208.75 335.00,226.58 C335.00,233.56 332.60,238.36 325.18,246.21 C310.33,261.90 291.99,271.47 271.00,274.48 C262.84,275.65 262.62,275.75 265.50,276.94 C270.06,278.83 279.86,280.00 286.00,279.39 C301.20,277.89 307.55,275.92 324.57,267.43 C335.87,261.79 338.60,260.83 344.82,260.31 L 352.00 259.71 L 356.10 251.10 C358.36,246.37 364.47,233.27 369.69,222.00 C374.91,210.73 379.88,200.01 380.73,198.20 C382.06,195.36 382.72,194.94 385.39,195.20 C390.86,195.73 390.16,198.73 376.61,232.85 L 364.17 264.19 L 367.08 268.79 C369.15,272.06 370.00,274.65 370.00,277.75 C370.00,285.66 366.54,289.50 356.80,292.36 C353.06,293.46 352.79,293.85 348.67,304.11 C343.37,317.32 341.66,320.00 338.54,320.00 C334.54,320.00 331.04,318.19 329.81,315.48 C328.83,313.32 329.01,312.17 330.95,308.21 C332.22,305.62 333.91,301.98 334.70,300.13 L 336.13 296.75 L 333.32 297.43 C331.77,297.80 325.77,300.51 320.00,303.44 C299.20,314.00 283.34,318.21 264.50,318.19 C253.41,318.17 243.51,316.55 235.76,313.48 C234.56,313.01 233.80,313.37 233.34,314.65 C232.29,317.50 225.51,327.26 223.02,329.49 C220.96,331.35 220.85,332.05 221.47,339.49 C221.83,343.90 221.67,350.20 221.10,353.50 C220.54,356.80 219.80,361.08 219.47,363.00 C218.88,366.45 218.95,366.54 224.68,369.22 C230.97,372.16 237.34,377.49 241.04,382.91 C244.29,387.67 244.32,394.72 241.12,399.05 L 238.74 402.27 L 251.62 401.78 C269.89,401.08 281.19,397.09 291.10,387.85 C295.93,383.35 298.12,378.81 298.73,372.02 C299.57,362.83 294.77,356.18 286.64,355.26 C282.78,354.83 281.79,355.12 279.58,357.33 C277.03,359.88 276.43,362.35 277.61,365.42 C278.03,366.52 279.51,367.00 282.45,367.00 C287.90,367.00 290.00,369.21 290.00,374.95 C290.00,378.57 289.42,379.82 286.23,383.01 C275.41,393.82 257.82,389.52 250.31,374.22 C247.94,369.40 247.50,367.25 247.50,360.50 C247.50,353.68 247.93,351.62 250.42,346.55 C254.41,338.42 260.56,332.59 269.79,328.18 C277.29,324.60 277.81,324.50 289.00,324.50 C299.79,324.50 300.90,324.69 307.00,327.59 C318.65,333.14 327.85,344.11 331.57,356.89 C333.83,364.65 333.14,380.30 330.18,388.43 C321.80,411.48 299.38,428.99 267.99,437.00 C249.35,441.76 224.37,443.13 205.00,440.45 ZM 211.00 435.37 C216.70,436.10 249.16,435.14 253.50,434.10 C255.70,433.58 259.13,432.91 261.11,432.60 C265.97,431.86 280.44,427.26 286.00,424.68 C303.95,416.35 317.75,403.26 323.85,388.79 C326.22,383.17 326.50,381.23 326.50,370.50 C326.50,359.15 326.33,358.15 323.40,352.00 C315.84,336.14 298.93,326.84 283.40,329.99 C262.69,334.20 250.45,349.29 254.04,366.20 C256.99,380.09 271.39,386.98 281.07,379.14 C284.11,376.69 283.05,374.00 279.05,374.00 C274.90,374.00 270.09,369.50 269.37,364.95 C267.69,354.40 280.80,344.50 291.73,348.06 C296.65,349.67 299.87,352.23 303.25,357.23 C305.65,360.79 306.00,362.25 305.99,368.90 C305.98,374.86 305.45,377.64 303.53,381.77 C298.82,391.87 286.01,401.25 271.00,405.59 C265.69,407.12 261.22,407.46 246.50,407.42 C230.73,407.39 227.13,407.06 217.47,404.80 C197.43,400.10 183.11,393.35 172.24,383.49 C168.79,380.36 164.79,375.79 163.35,373.33 C160.99,369.31 160.84,368.48 161.86,365.08 C162.57,362.70 164.99,359.41 168.38,356.20 C174.42,350.49 182.86,344.79 184.12,345.57 C185.51,346.43 187.04,353.54 188.48,365.86 C189.94,378.25 192.13,385.47 194.91,386.95 C195.83,387.44 201.74,388.81 208.04,389.99 C214.34,391.17 221.85,392.81 224.73,393.63 C232.01,395.72 236.40,395.18 236.83,392.16 C237.78,385.47 228.39,376.39 216.91,372.90 C213.11,371.75 210.01,370.51 210.01,370.15 C210.02,369.79 210.76,367.48 211.65,365.00 C218.59,345.78 215.18,324.49 203.52,314.23 C195.06,306.78 182.50,304.31 169.64,307.55 C152.57,311.87 140.66,322.03 132.37,339.34 L 128.95 346.50 L 129.47 340.13 C130.86,323.27 145.20,308.42 166.77,301.51 C170.74,300.24 174.71,299.91 182.77,300.16 C192.00,300.45 194.34,300.89 199.50,303.30 C202.80,304.84 207.86,308.42 210.74,311.25 L 215.98 316.41 L 218.74 314.36 C220.26,313.23 222.15,311.16 222.95,309.76 C224.30,307.37 224.20,306.99 221.20,303.57 C219.44,301.57 218.00,299.69 218.00,299.40 C218.00,298.62 221.67,299.89 228.91,303.20 C257.93,316.44 283.05,314.84 317.21,297.59 C329.60,291.33 336.00,289.23 349.88,286.88 C359.09,285.32 363.38,282.64 363.82,278.18 C364.23,273.95 359.16,268.66 353.14,267.04 C346.19,265.17 340.60,266.62 324.50,274.48 C306.41,283.31 300.17,285.06 284.40,285.72 C269.36,286.35 265.77,285.41 247.17,275.93 C227.32,265.81 225.38,263.87 237.60,266.38 C255.23,269.99 269.07,269.28 286.16,263.89 C296.79,260.54 309.28,253.52 309.84,250.58 C310.13,249.11 309.80,248.86 308.35,249.43 C299.33,252.96 267.46,254.24 255.80,251.53 C235.32,246.78 221.33,237.83 223.54,230.87 C224.42,228.10 226.58,228.60 229.10,232.15 C232.26,236.57 245.76,242.69 257.68,245.09 C268.95,247.35 282.62,247.51 296.00,245.53 C321.30,241.78 329.02,237.38 328.99,226.72 C328.98,223.85 328.27,219.48 327.41,217.00 C321.89,201.14 306.24,184.15 288.00,174.19 C270.73,164.77 254.97,164.50 227.00,173.17 C213.88,177.23 192.29,185.51 184.53,189.45 C173.85,194.87 172.60,196.82 169.04,213.46 C168.02,218.21 165.45,220.49 158.93,222.43 C150.20,225.02 135.69,232.78 126.50,239.77 C107.93,253.89 96.42,272.31 90.42,297.50 C87.92,308.04 88.09,330.84 90.77,342.50 C98.21,374.90 121.06,402.94 153.20,419.10 C167.67,426.37 190.07,432.68 211.00,435.37 ZM 152.67 161.75 C153.02,167.94 153.66,173.00 154.11,173.00 C154.55,173.00 157.07,171.74 159.71,170.20 C167.58,165.59 184.47,157.14 192.23,153.91 C202.15,149.78 224.29,142.50 231.00,141.16 C234.02,140.55 238.30,139.67 240.50,139.19 L 244.50 138.32 L 235.00 128.89 C229.77,123.71 224.15,118.33 222.50,116.95 C199.06,97.29 169.57,80.03 157.99,79.19 C151.29,78.71 147.49,80.44 136.61,88.91 C130.57,93.62 118.03,107.24 112.89,114.67 C110.00,118.86 107.61,124.00 108.55,124.00 C108.83,124.00 113.19,122.64 118.25,120.97 C127.82,117.82 138.45,112.48 143.32,108.39 C144.88,107.07 146.47,106.00 146.85,106.00 C147.66,106.00 151.72,144.97 152.67,161.75 ZM 121.00 207.43 C121.00,208.45 123.02,208.03 125.29,206.56 C126.50,205.77 132.45,203.12 138.50,200.67 C144.55,198.23 154.90,193.88 161.50,191.00 C209.25,170.21 249.11,157.67 283.29,152.69 C293.58,151.19 295.38,150.49 292.97,148.95 C288.87,146.31 282.60,145.55 265.00,145.55 C251.03,145.55 244.29,145.99 237.50,147.37 C220.23,150.88 191.77,161.09 172.89,170.56 C145.34,184.38 121.00,201.67 121.00,207.43 ZM 266.11 214.44 C258.91,208.38 262.33,194.15 271.40,192.45 C279.62,190.91 285.76,197.59 284.70,206.94 C283.67,216.15 273.17,220.38 266.11,214.44 ZM 183.51 371.26 C183.13,366.17 182.49,362.00 182.09,362.00 C180.89,362.00 173.06,369.03 171.95,371.08 C170.68,373.47 173.65,377.81 179.50,382.14 L 183.50 385.10 L 183.85 382.81 C184.04,381.55 183.89,376.35 183.51,371.26 Z" fill="#CC095D"/>
<path d="M 211.00 435.37 C190.07,432.68 167.67,426.37 153.20,419.10 C121.06,402.94 98.21,374.90 90.77,342.50 C88.09,330.84 87.92,308.04 90.42,297.50 C96.42,272.31 107.93,253.89 126.50,239.77 C135.69,232.78 150.20,225.02 158.93,222.43 C165.45,220.49 168.02,218.21 169.04,213.46 C172.60,196.82 173.85,194.87 184.53,189.45 C192.29,185.51 213.88,177.23 227.00,173.17 C254.97,164.50 270.73,164.77 288.00,174.19 C306.24,184.15 321.89,201.14 327.41,217.00 C328.27,219.48 328.98,223.85 328.99,226.72 C329.02,237.38 321.30,241.78 296.00,245.53 C282.62,247.51 268.95,247.35 257.68,245.09 C245.76,242.69 232.26,236.57 229.10,232.15 C226.58,228.60 224.42,228.10 223.54,230.87 C221.33,237.83 235.32,246.78 255.80,251.53 C267.46,254.24 299.33,252.96 308.35,249.43 C309.80,248.86 310.13,249.11 309.84,250.58 C309.28,253.52 296.79,260.54 286.16,263.89 C269.07,269.28 255.23,269.99 237.60,266.38 C225.38,263.87 227.32,265.81 247.17,275.93 C265.77,285.41 269.36,286.35 284.40,285.72 C300.17,285.06 306.41,283.31 324.50,274.48 C340.60,266.62 346.19,265.17 353.14,267.04 C359.16,268.66 364.23,273.95 363.82,278.18 C363.38,282.64 359.09,285.32 349.88,286.88 C336.00,289.23 329.60,291.33 317.21,297.59 C283.05,314.84 257.93,316.44 228.91,303.20 C221.67,299.89 218.00,298.62 218.00,299.40 C218.00,299.69 219.44,301.57 221.20,303.57 C224.20,306.99 224.30,307.37 222.95,309.76 C222.15,311.16 220.26,313.23 218.74,314.36 L 215.98 316.41 L 210.74 311.25 C207.86,308.42 202.80,304.84 199.50,303.30 C194.34,300.89 192.00,300.45 182.77,300.16 C174.71,299.91 170.74,300.24 166.77,301.51 C145.20,308.42 130.86,323.27 129.47,340.13 L 128.95 346.50 L 132.37 339.34 C140.66,322.03 152.57,311.87 169.64,307.55 C182.50,304.31 195.06,306.78 203.52,314.23 C215.18,324.49 218.59,345.78 211.65,365.00 C210.76,367.48 210.02,369.79 210.01,370.15 C210.01,370.51 213.11,371.75 216.91,372.90 C228.39,376.39 237.78,385.47 236.83,392.16 C236.40,395.18 232.01,395.72 224.73,393.63 C221.85,392.81 214.34,391.17 208.04,389.99 C201.74,388.81 195.83,387.44 194.91,386.95 C192.13,385.47 189.94,378.25 188.48,365.86 C187.04,353.54 185.51,346.43 184.12,345.57 C182.86,344.79 174.42,350.49 168.38,356.20 C164.99,359.41 162.57,362.70 161.86,365.08 C160.84,368.48 160.99,369.31 163.35,373.33 C164.79,375.79 168.79,380.36 172.24,383.49 C183.11,393.35 197.43,400.10 217.47,404.80 C227.13,407.06 230.73,407.39 246.50,407.42 C261.22,407.46 265.69,407.12 271.00,405.59 C286.01,401.25 298.82,391.87 303.53,381.77 C305.45,377.64 305.98,374.86 305.99,368.90 C306.00,362.25 305.65,360.79 303.25,357.23 C299.87,352.23 296.65,349.67 291.73,348.06 C280.80,344.50 267.69,354.40 269.37,364.95 C270.09,369.50 274.90,374.00 279.05,374.00 C283.05,374.00 284.11,376.69 281.07,379.14 C271.39,386.98 256.99,380.09 254.04,366.20 C250.45,349.29 262.69,334.20 283.40,329.99 C298.93,326.84 315.84,336.14 323.40,352.00 C326.33,358.15 326.50,359.15 326.50,370.50 C326.50,381.23 326.22,383.17 323.85,388.79 C317.75,403.26 303.95,416.35 286.00,424.68 C280.44,427.26 265.97,431.86 261.11,432.60 C259.13,432.91 255.70,433.58 253.50,434.10 C249.16,435.14 216.70,436.10 211.00,435.37 ZM 278.55 227.87 C283.48,225.56 287.02,221.83 290.16,215.69 C293.20,209.72 293.03,198.89 289.79,192.38 C285.88,184.51 275.41,178.00 266.67,178.00 C257.01,178.00 246.49,185.41 243.04,194.63 C240.44,201.57 240.46,206.49 243.13,213.62 C248.64,228.34 264.22,234.61 278.55,227.87 Z" fill="#FD0363"/>
<path d="M 121.00 207.43 C121.00,201.67 145.34,184.38 172.89,170.56 C191.77,161.09 220.23,150.88 237.50,147.37 C244.29,145.99 251.03,145.55 265.00,145.55 C282.60,145.55 288.87,146.31 292.97,148.95 C295.38,150.49 293.58,151.19 283.29,152.69 C249.11,157.67 209.25,170.21 161.50,191.00 C154.90,193.88 144.55,198.23 138.50,200.67 C132.45,203.12 126.50,205.77 125.29,206.56 C123.02,208.03 121.00,208.45 121.00,207.43 ZM 421.06 197.58 C420.33,196.70 419.01,194.52 418.12,192.74 C417.21,190.93 415.07,188.87 413.25,188.07 C409.08,186.23 409.13,184.51 413.42,182.47 C416.53,181.00 420.00,176.05 420.00,173.10 C420.00,170.28 422.90,172.46 424.41,176.41 C425.64,179.63 427.01,181.25 429.51,182.44 C434.41,184.76 434.58,185.76 430.39,187.74 C427.61,189.06 426.14,190.71 424.54,194.34 C422.65,198.60 422.23,198.99 421.06,197.58 ZM 388.53 179.31 C383.12,161.97 380.84,159.40 367.50,155.56 C364.20,154.60 360.40,153.50 359.06,153.10 C354.67,151.79 355.87,150.51 363.75,148.12 C374.22,144.94 380.39,141.68 383.31,137.76 C385.52,134.80 388.85,125.91 390.45,118.68 C391.63,113.33 394.08,115.92 397.52,126.17 C399.30,131.50 401.70,137.18 402.86,138.80 C405.10,141.95 410.54,144.46 422.75,147.99 C429.53,149.95 431.67,151.54 428.75,152.45 C428.06,152.67 424.35,153.79 420.50,154.96 C411.04,157.82 405.25,160.83 402.91,164.13 C401.84,165.64 399.44,171.51 397.58,177.18 C395.54,183.45 393.63,187.62 392.74,187.80 C391.68,188.01 390.49,185.62 388.53,179.31 ZM 152.67 161.75 C151.72,144.97 147.66,106.00 146.85,106.00 C146.47,106.00 144.88,107.07 143.32,108.39 C138.45,112.48 127.82,117.82 118.25,120.97 C113.19,122.64 108.83,124.00 108.55,124.00 C107.61,124.00 110.00,118.86 112.89,114.67 C118.03,107.24 130.57,93.62 136.61,88.91 C147.49,80.44 151.29,78.71 157.99,79.19 C169.57,80.03 199.06,97.29 222.50,116.95 C224.15,118.33 229.77,123.71 235.00,128.89 L 244.50 138.32 L 240.50 139.19 C238.30,139.67 234.02,140.55 231.00,141.16 C224.29,142.50 202.15,149.78 192.23,153.91 C184.47,157.14 167.58,165.59 159.71,170.20 C157.07,171.74 154.55,173.00 154.11,173.00 C153.66,173.00 153.02,167.94 152.67,161.75 Z" fill="#FF9FAF"/>
</g>
</svg>